<svg width="89" height="52" viewBox="0 0 89 52" fill="none" xmlns="http://www.w3.org/2000/svg">
<path d="M4.284 47.112C3.63067 47.112 3.01467 47.0327 2.436 46.874C1.86667 46.706 1.36733 46.468 0.938 46.16C0.704667 46.0107 0.588 45.8193 0.588 45.586C0.588 45.418 0.639333 45.2827 0.742 45.18C0.844667 45.068 0.98 45.012 1.148 45.012C1.26933 45.012 1.39533 45.0493 1.526 45.124C1.93667 45.404 2.352 45.6047 2.772 45.726C3.192 45.8473 3.64933 45.908 4.144 45.908C4.96533 45.908 5.60933 45.7633 6.076 45.474C6.54267 45.1753 6.776 44.7507 6.776 44.2C6.776 43.108 6.01533 42.562 4.494 42.562H2.996C2.79067 42.562 2.62733 42.506 2.506 42.394C2.394 42.282 2.338 42.1467 2.338 41.988C2.338 41.8293 2.394 41.694 2.506 41.582C2.62733 41.4607 2.79067 41.4 2.996 41.4H4.256C5.00267 41.4 5.57667 41.26 5.978 40.98C6.38867 40.6907 6.594 40.28 6.594 39.748C6.594 39.2533 6.40267 38.8753 6.02 38.614C5.64667 38.3527 5.12867 38.222 4.466 38.222C3.95267 38.222 3.47667 38.292 3.038 38.432C2.60867 38.572 2.18867 38.768 1.778 39.02C1.65667 39.076 1.54 39.104 1.428 39.104C1.25067 39.104 1.106 39.0527 0.994 38.95C0.891333 38.838 0.84 38.698 0.84 38.53C0.84 38.418 0.868 38.3107 0.924 38.208C0.989333 38.1053 1.08267 38.0213 1.204 37.956C1.63333 37.6667 2.142 37.438 2.73 37.27C3.32733 37.102 3.97133 37.018 4.662 37.018C5.754 37.018 6.594 37.2513 7.182 37.718C7.77 38.1753 8.064 38.81 8.064 39.622C8.064 40.1727 7.91 40.6487 7.602 41.05C7.294 41.442 6.846 41.7313 6.258 41.918C7.58333 42.198 8.246 42.9633 8.246 44.214C8.246 44.7927 8.078 45.3013 7.742 45.74C7.41533 46.1787 6.95333 46.5193 6.356 46.762C5.75867 46.9953 5.068 47.112 4.284 47.112ZM12.8188 40C13.7241 40 14.3961 40.2287 14.8348 40.686C15.2828 41.1433 15.5068 41.8387 15.5068 42.772V46.398C15.5068 46.6127 15.4461 46.7807 15.3248 46.902C15.2034 47.014 15.0354 47.07 14.8208 47.07C14.6154 47.07 14.4521 47.0093 14.3308 46.888C14.2094 46.7667 14.1488 46.6033 14.1488 46.398V45.88C13.9714 46.272 13.7054 46.5753 13.3508 46.79C13.0054 46.9953 12.5994 47.098 12.1328 47.098C11.6848 47.098 11.2741 47.0093 10.9008 46.832C10.5368 46.6453 10.2474 46.3933 10.0328 46.076C9.81808 45.7587 9.71075 45.3993 9.71075 44.998C9.70142 44.494 9.82742 44.102 10.0888 43.822C10.3501 43.5327 10.7748 43.3273 11.3628 43.206C11.9508 43.0753 12.7674 43.01 13.8128 43.01H14.1348V42.604C14.1348 42.0813 14.0274 41.7033 13.8128 41.47C13.5981 41.2367 13.2528 41.12 12.7768 41.12C12.4501 41.12 12.1421 41.162 11.8528 41.246C11.5634 41.33 11.2461 41.4513 10.9008 41.61C10.6488 41.75 10.4714 41.82 10.3688 41.82C10.2288 41.82 10.1121 41.7687 10.0188 41.666C9.93475 41.5633 9.89275 41.4327 9.89275 41.274C9.89275 41.134 9.93008 41.0127 10.0048 40.91C10.0888 40.798 10.2194 40.6907 10.3968 40.588C10.7234 40.4107 11.1061 40.2707 11.5448 40.168C11.9834 40.056 12.4081 40 12.8188 40ZM12.3848 46.048C12.8981 46.048 13.3181 45.8753 13.6448 45.53C13.9714 45.1753 14.1348 44.7227 14.1348 44.172V43.808H13.8828C13.1548 43.808 12.5948 43.8407 12.2028 43.906C11.8108 43.9713 11.5308 44.0833 11.3628 44.242C11.1948 44.3913 11.1108 44.6107 11.1108 44.9C11.1108 45.236 11.2321 45.5113 11.4748 45.726C11.7174 45.9407 12.0208 46.048 12.3848 46.048ZM21.0109 43.276C21.3376 43.388 21.5989 43.5467 21.7949 43.752C22.0003 43.9573 22.2429 44.3027 22.5229 44.788L23.2789 46.062C23.3443 46.1833 23.3769 46.3 23.3769 46.412C23.3769 46.5987 23.3069 46.7573 23.1669 46.888C23.0269 47.0093 22.8636 47.07 22.6769 47.07C22.4343 47.07 22.2383 46.9487 22.0889 46.706L21.1089 45.026C20.8849 44.6527 20.6703 44.4007 20.4649 44.27C20.2689 44.13 19.9796 44.06 19.5969 44.06H18.9249V46.398C18.9249 46.6033 18.8596 46.7667 18.7289 46.888C18.5983 47.0093 18.4256 47.07 18.2109 47.07C17.9963 47.07 17.8236 47.0093 17.6929 46.888C17.5716 46.7667 17.5109 46.6033 17.5109 46.398V40.714C17.5109 40.4993 17.5716 40.3313 17.6929 40.21C17.8236 40.0887 17.9963 40.028 18.2109 40.028C18.4256 40.028 18.5983 40.0933 18.7289 40.224C18.8596 40.3453 18.9249 40.5087 18.9249 40.714V42.982H19.7229L21.9069 40.322C22.0656 40.1353 22.2429 40.042 22.4389 40.042C22.5976 40.042 22.7329 40.098 22.8449 40.21C22.9663 40.322 23.0269 40.4573 23.0269 40.616C23.0269 40.784 22.9663 40.9427 22.8449 41.092L21.0109 43.276ZM27.6801 40C28.5854 40 29.2574 40.2287 29.6961 40.686C30.1441 41.1433 30.3681 41.8387 30.3681 42.772V46.398C30.3681 46.6127 30.3074 46.7807 30.1861 46.902C30.0647 47.014 29.8967 47.07 29.6821 47.07C29.4767 47.07 29.3134 47.0093 29.1921 46.888C29.0707 46.7667 29.0101 46.6033 29.0101 46.398V45.88C28.8327 46.272 28.5667 46.5753 28.2121 46.79C27.8667 46.9953 27.4607 47.098 26.9941 47.098C26.5461 47.098 26.1354 47.0093 25.7621 46.832C25.3981 46.6453 25.1087 46.3933 24.8941 46.076C24.6794 45.7587 24.5721 45.3993 24.5721 44.998C24.5627 44.494 24.6887 44.102 24.9501 43.822C25.2114 43.5327 25.6361 43.3273 26.2241 43.206C26.8121 43.0753 27.6287 43.01 28.6741 43.01H28.9961V42.604C28.9961 42.0813 28.8887 41.7033 28.6741 41.47C28.4594 41.2367 28.1141 41.12 27.6381 41.12C27.3114 41.12 27.0034 41.162 26.7141 41.246C26.4247 41.33 26.1074 41.4513 25.7621 41.61C25.5101 41.75 25.3327 41.82 25.2301 41.82C25.0901 41.82 24.9734 41.7687 24.8801 41.666C24.7961 41.5633 24.7541 41.4327 24.7541 41.274C24.7541 41.134 24.7914 41.0127 24.8661 40.91C24.9501 40.798 25.0807 40.6907 25.2581 40.588C25.5847 40.4107 25.9674 40.2707 26.4061 40.168C26.8447 40.056 27.2694 40 27.6801 40ZM27.2461 46.048C27.7594 46.048 28.1794 45.8753 28.5061 45.53C28.8327 45.1753 28.9961 44.7227 28.9961 44.172V43.808H28.7441C28.0161 43.808 27.4561 43.8407 27.0641 43.906C26.6721 43.9713 26.3921 44.0833 26.2241 44.242C26.0561 44.3913 25.9721 44.6107 25.9721 44.9C25.9721 45.236 26.0934 45.5113 26.3361 45.726C26.5787 45.9407 26.8821 46.048 27.2461 46.048ZM34.5143 47.098C33.5623 47.098 32.7503 46.8973 32.0783 46.496C31.8356 46.3653 31.7143 46.1833 31.7143 45.95C31.7143 45.81 31.7656 45.6933 31.8683 45.6C31.9709 45.4973 32.1016 45.446 32.2603 45.446C32.3723 45.446 32.4843 45.474 32.5963 45.53C32.8856 45.6887 33.1703 45.8053 33.4503 45.88C33.7396 45.9547 34.0569 45.992 34.4023 45.992C34.8596 45.992 35.2563 45.9033 35.5923 45.726C35.9283 45.5487 36.0963 45.278 36.0963 44.914C36.0963 44.3167 35.6716 44.018 34.8223 44.018H33.8283C33.6696 44.018 33.5389 43.9713 33.4363 43.878C33.3429 43.7753 33.2963 43.6447 33.2963 43.486C33.2963 43.3367 33.3476 43.2153 33.4503 43.122C33.5529 43.0193 33.6789 42.968 33.8283 42.968H34.7383C35.1303 42.968 35.4289 42.884 35.6343 42.716C35.8489 42.5387 35.9563 42.31 35.9563 42.03C35.9563 41.7407 35.8349 41.5213 35.5923 41.372C35.3496 41.2133 35.0043 41.134 34.5563 41.134C34.1923 41.134 33.8703 41.1713 33.5903 41.246C33.3196 41.3207 33.0443 41.4327 32.7643 41.582C32.6523 41.6287 32.5496 41.652 32.4563 41.652C32.3069 41.652 32.1763 41.6007 32.0643 41.498C31.9616 41.3953 31.9103 41.2787 31.9103 41.148C31.9103 40.9147 32.0363 40.7373 32.2883 40.616C33.0256 40.2053 33.8656 40 34.8083 40C35.6763 40 36.3296 40.168 36.7683 40.504C37.2163 40.84 37.4403 41.288 37.4403 41.848C37.4403 42.1933 37.3329 42.5107 37.1183 42.8C36.9036 43.0893 36.6049 43.2993 36.2223 43.43C37.1183 43.626 37.5663 44.1533 37.5663 45.012C37.5663 45.432 37.4309 45.8007 37.1603 46.118C36.8896 46.4353 36.5209 46.678 36.0543 46.846C35.5876 47.014 35.0743 47.098 34.5143 47.098ZM43.5156 47.07C43.3009 47.07 43.1283 47.0093 42.9976 46.888C42.8669 46.7667 42.8016 46.6033 42.8016 46.398V40.896C42.8016 40.672 42.8623 40.4947 42.9836 40.364C43.1049 40.2333 43.2729 40.168 43.4876 40.168H48.1776C48.4016 40.168 48.5789 40.2287 48.7096 40.35C48.8403 40.4713 48.9056 40.6393 48.9056 40.854V46.398C48.9056 46.6033 48.8403 46.7667 48.7096 46.888C48.5789 47.0093 48.4063 47.07 48.1916 47.07C47.9769 47.07 47.8043 47.0093 47.6736 46.888C47.5523 46.7667 47.4916 46.6033 47.4916 46.398V41.26H44.2156V46.398C44.2156 46.6033 44.1503 46.7667 44.0196 46.888C43.8983 47.0093 43.7303 47.07 43.5156 47.07ZM54.5093 40C55.0973 40 55.62 40.1493 56.0773 40.448C56.544 40.7467 56.9033 41.1667 57.1553 41.708C57.4167 42.2493 57.5473 42.8747 57.5473 43.584C57.5473 44.284 57.4213 44.9 57.1693 45.432C56.9173 45.964 56.558 46.3747 56.0913 46.664C55.634 46.9533 55.1067 47.098 54.5093 47.098C53.996 47.098 53.5433 46.9907 53.1513 46.776C52.7593 46.552 52.4607 46.2347 52.2553 45.824V48.946C52.2553 49.142 52.19 49.296 52.0593 49.408C51.938 49.5293 51.7747 49.59 51.5693 49.59C51.3547 49.59 51.1773 49.5293 51.0373 49.408C50.9067 49.2867 50.8413 49.1233 50.8413 48.918V40.714C50.8413 40.5087 50.9067 40.3453 51.0373 40.224C51.168 40.0933 51.3407 40.028 51.5553 40.028C51.7607 40.028 51.9287 40.0933 52.0593 40.224C52.19 40.3453 52.2553 40.5087 52.2553 40.714V41.288C52.4607 40.8773 52.7593 40.56 53.1513 40.336C53.5433 40.112 53.996 40 54.5093 40ZM54.1733 45.978C54.7893 45.978 55.2653 45.7727 55.6013 45.362C55.9373 44.942 56.1053 44.3493 56.1053 43.584C56.1053 42.8093 55.9327 42.2073 55.5873 41.778C55.2513 41.3487 54.78 41.134 54.1733 41.134C53.5573 41.134 53.0813 41.344 52.7453 41.764C52.4187 42.184 52.2553 42.7813 52.2553 43.556C52.2553 44.3307 52.4187 44.928 52.7453 45.348C53.0813 45.768 53.5573 45.978 54.1733 45.978ZM63.7748 40.532C63.9055 40.3453 64.0315 40.2147 64.1528 40.14C64.2741 40.0653 64.4375 40.028 64.6428 40.028C64.8668 40.028 65.0441 40.0933 65.1748 40.224C65.3055 40.3453 65.3708 40.5133 65.3708 40.728V46.384C65.3708 46.5893 65.3101 46.7573 65.1888 46.888C65.0675 47.0093 64.9041 47.07 64.6988 47.07C64.5028 47.07 64.3395 47.0093 64.2088 46.888C64.0875 46.7573 64.0268 46.5893 64.0268 46.384V41.932L60.6668 46.594C60.5361 46.7807 60.4055 46.9067 60.2748 46.972C60.1535 47.0373 59.9995 47.07 59.8128 47.07C59.5981 47.07 59.4208 47.0093 59.2808 46.888C59.1501 46.7573 59.0848 46.5893 59.0848 46.384V40.714C59.0848 40.518 59.1455 40.3547 59.2668 40.224C59.3975 40.0933 59.5655 40.028 59.7708 40.028C59.9668 40.028 60.1255 40.0933 60.2468 40.224C60.3775 40.3547 60.4428 40.518 60.4428 40.714V45.124L63.7748 40.532ZM68.0019 47.07C67.7873 47.07 67.6146 47.0093 67.4839 46.888C67.3533 46.7667 67.2879 46.6033 67.2879 46.398V40.7C67.2879 40.4947 67.3533 40.3313 67.4839 40.21C67.6146 40.0887 67.7873 40.028 68.0019 40.028C68.2166 40.028 68.3846 40.0887 68.5059 40.21C68.6366 40.3313 68.7019 40.4947 68.7019 40.7V42.94H72.0619V40.7C72.0619 40.4947 72.1273 40.3313 72.2579 40.21C72.3886 40.0887 72.5613 40.028 72.7759 40.028C72.9906 40.028 73.1586 40.0887 73.2799 40.21C73.4106 40.3313 73.4759 40.4947 73.4759 40.7L73.4899 46.356C73.4899 46.5707 73.4246 46.7433 73.2939 46.874C73.1633 47.0047 72.9906 47.07 72.7759 47.07C72.5613 47.07 72.3886 47.0047 72.2579 46.874C72.1273 46.7433 72.0619 46.5707 72.0619 46.356V44.06H68.7019V46.398C68.7019 46.6033 68.6366 46.7667 68.5059 46.888C68.3846 47.0093 68.2166 47.07 68.0019 47.07ZM80.2394 47.07C80.0247 47.07 79.852 47.0093 79.7214 46.888C79.6 46.7667 79.5394 46.6033 79.5394 46.398V44.55H78.8394C78.186 44.55 77.668 44.844 77.2854 45.432L76.3614 46.804C76.2027 47.028 76.002 47.14 75.7594 47.14C75.582 47.14 75.4234 47.0793 75.2834 46.958C75.1527 46.8367 75.0874 46.692 75.0874 46.524C75.0874 46.3933 75.1294 46.258 75.2134 46.118L75.6754 45.39C75.8807 45.0633 76.1094 44.7927 76.3614 44.578C76.6134 44.354 76.87 44.2093 77.1314 44.144C76.5247 44.032 76.0767 43.808 75.7874 43.472C75.5074 43.136 75.3674 42.7347 75.3674 42.268C75.3674 41.596 75.582 41.078 76.0114 40.714C76.4407 40.35 77.024 40.168 77.7614 40.168H80.2254C80.4494 40.168 80.622 40.2287 80.7434 40.35C80.874 40.4713 80.9394 40.6393 80.9394 40.854V46.398C80.9394 46.6033 80.874 46.7667 80.7434 46.888C80.622 47.0093 80.454 47.07 80.2394 47.07ZM79.5394 41.19H78.1254C77.1827 41.19 76.7114 41.582 76.7114 42.366C76.7114 42.786 76.8467 43.0893 77.1174 43.276C77.388 43.4533 77.7287 43.542 78.1394 43.542H79.5394V41.19ZM85.1285 47.07C84.9139 47.07 84.7412 47.0093 84.6105 46.888C84.4799 46.7667 84.4145 46.6033 84.4145 46.398V41.26H82.5945C82.4265 41.26 82.2912 41.2087 82.1885 41.106C82.0859 41.0033 82.0345 40.8727 82.0345 40.714C82.0345 40.5553 82.0859 40.4247 82.1885 40.322C82.2912 40.2193 82.4265 40.168 82.5945 40.168H87.6485C87.8259 40.168 87.9659 40.2193 88.0685 40.322C88.1712 40.4247 88.2225 40.5553 88.2225 40.714C88.2225 40.8727 88.1712 41.0033 88.0685 41.106C87.9659 41.2087 87.8259 41.26 87.6485 41.26H85.8285V46.398C85.8285 46.6033 85.7632 46.7667 85.6325 46.888C85.5112 47.0093 85.3432 47.07 85.1285 47.07Z" fill="#AEADAE"/>
<circle cx="45" cy="16" r="15.5" fill="white" stroke="#D7D7D7"/>
<path d="M47.0147 15.932C47.6027 16.0813 48.0507 16.366 48.3587 16.786C48.6761 17.1967 48.8347 17.71 48.8347 18.326C48.8347 19.1753 48.5221 19.852 47.8967 20.356C47.2714 20.86 46.4267 21.112 45.3627 21.112C44.7561 21.112 44.1727 21.0187 43.6127 20.832C43.0527 20.6453 42.5767 20.384 42.1847 20.048C41.9701 19.8613 41.8627 19.642 41.8627 19.39C41.8627 19.1847 41.9187 19.012 42.0307 18.872C42.1521 18.7227 42.2921 18.648 42.4507 18.648C42.5441 18.648 42.6281 18.6667 42.7027 18.704C42.7774 18.732 42.8801 18.7833 43.0107 18.858C43.4027 19.1193 43.7761 19.32 44.1307 19.46C44.4854 19.6 44.8727 19.67 45.2927 19.67C45.9087 19.67 46.3661 19.5487 46.6647 19.306C46.9634 19.054 47.1127 18.676 47.1127 18.172C47.1127 17.6773 46.9541 17.3133 46.6367 17.08C46.3287 16.8373 45.8481 16.716 45.1947 16.716H44.3967C44.1821 16.716 44.0141 16.646 43.8927 16.506C43.7807 16.3567 43.7247 16.1887 43.7247 16.002C43.7247 15.806 43.7807 15.638 43.8927 15.498C44.0141 15.358 44.1821 15.288 44.3967 15.288H44.9567C46.2354 15.288 46.8747 14.8073 46.8747 13.846C46.8747 13.398 46.7394 13.0527 46.4687 12.81C46.1981 12.5673 45.8247 12.446 45.3487 12.446C44.6674 12.446 43.9394 12.7167 43.1647 13.258C43.0341 13.3327 42.9314 13.3887 42.8567 13.426C42.7821 13.454 42.6981 13.468 42.6047 13.468C42.4461 13.468 42.3061 13.398 42.1847 13.258C42.0727 13.1087 42.0167 12.9313 42.0167 12.726C42.0167 12.586 42.0401 12.4693 42.0867 12.376C42.1427 12.2733 42.2267 12.1707 42.3387 12.068C42.7307 11.7413 43.1974 11.4847 43.7387 11.298C44.2894 11.102 44.8494 11.004 45.4187 11.004C46.3894 11.004 47.1594 11.242 47.7287 11.718C48.3074 12.194 48.5967 12.8287 48.5967 13.622C48.5874 14.1633 48.4427 14.6393 48.1627 15.05C47.8921 15.4513 47.5094 15.7453 47.0147 15.932Z" fill="#AEADAE"/>
</svg>
