<svg width="57" height="52" viewBox="0 0 57 52" fill="none" xmlns="http://www.w3.org/2000/svg">
<path d="M1.862 47.07C1.64733 47.07 1.47467 47.0047 1.344 46.874C1.21333 46.7433 1.148 46.566 1.148 46.342V37.774C1.148 37.5593 1.21333 37.3867 1.344 37.256C1.47467 37.1253 1.64733 37.06 1.862 37.06C2.07667 37.06 2.24933 37.1253 2.38 37.256C2.51067 37.3867 2.576 37.5593 2.576 37.774V41.4H4.004L7.28 37.34C7.42933 37.1533 7.60667 37.06 7.812 37.06C7.98 37.06 8.12467 37.1207 8.246 37.242C8.37667 37.3633 8.442 37.508 8.442 37.676C8.442 37.8347 8.38133 37.9887 8.26 38.138L5.404 41.652C5.74 41.7547 6.01533 41.8853 6.23 42.044C6.454 42.2027 6.65467 42.408 6.832 42.66C7.01867 42.912 7.24267 43.2713 7.504 43.738L8.778 46.006C8.85267 46.1553 8.89 46.286 8.89 46.398C8.89 46.5847 8.82 46.7433 8.68 46.874C8.54 47.0047 8.38133 47.07 8.204 47.07C7.93333 47.07 7.728 46.9393 7.588 46.678L6.118 44.018C5.81 43.486 5.50667 43.1127 5.208 42.898C4.91867 42.6833 4.51267 42.576 3.99 42.576H2.576V46.342C2.576 46.566 2.51067 46.7433 2.38 46.874C2.24933 47.0047 2.07667 47.07 1.862 47.07ZM13.2175 47.098C12.5455 47.098 11.9529 46.9533 11.4395 46.664C10.9355 46.3747 10.5435 45.964 10.2635 45.432C9.99286 44.8907 9.85753 44.2653 9.85753 43.556C9.85753 42.8373 9.99286 42.212 10.2635 41.68C10.5435 41.1387 10.9355 40.7233 11.4395 40.434C11.9529 40.1447 12.5455 40 13.2175 40C13.8895 40 14.4775 40.1447 14.9815 40.434C15.4949 40.7233 15.8869 41.1387 16.1575 41.68C16.4375 42.212 16.5775 42.8373 16.5775 43.556C16.5775 44.2653 16.4375 44.8907 16.1575 45.432C15.8869 45.964 15.4949 46.3747 14.9815 46.664C14.4775 46.9533 13.8895 47.098 13.2175 47.098ZM13.2175 45.978C13.8429 45.978 14.3189 45.7727 14.6455 45.362C14.9815 44.9513 15.1495 44.3493 15.1495 43.556C15.1495 42.772 14.9815 42.1747 14.6455 41.764C14.3095 41.344 13.8335 41.134 13.2175 41.134C12.6015 41.134 12.1255 41.344 11.7895 41.764C11.4535 42.1747 11.2855 42.772 11.2855 43.556C11.2855 44.3493 11.4489 44.9513 11.7755 45.362C12.1115 45.7727 12.5922 45.978 13.2175 45.978ZM21.8199 40C22.4079 40 22.9305 40.1493 23.3879 40.448C23.8545 40.7467 24.2139 41.1667 24.4659 41.708C24.7272 42.2493 24.8579 42.8747 24.8579 43.584C24.8579 44.284 24.7319 44.9 24.4799 45.432C24.2279 45.964 23.8685 46.3747 23.4019 46.664C22.9445 46.9533 22.4172 47.098 21.8199 47.098C21.3065 47.098 20.8539 46.9907 20.4619 46.776C20.0699 46.552 19.7712 46.2347 19.5659 45.824V48.946C19.5659 49.142 19.5005 49.296 19.3699 49.408C19.2485 49.5293 19.0852 49.59 18.8799 49.59C18.6652 49.59 18.4879 49.5293 18.3479 49.408C18.2172 49.2867 18.1519 49.1233 18.1519 48.918V40.714C18.1519 40.5087 18.2172 40.3453 18.3479 40.224C18.4785 40.0933 18.6512 40.028 18.8659 40.028C19.0712 40.028 19.2392 40.0933 19.3699 40.224C19.5005 40.3453 19.5659 40.5087 19.5659 40.714V41.288C19.7712 40.8773 20.0699 40.56 20.4619 40.336C20.8539 40.112 21.3065 40 21.8199 40ZM21.4839 45.978C22.0999 45.978 22.5759 45.7727 22.9119 45.362C23.2479 44.942 23.4159 44.3493 23.4159 43.584C23.4159 42.8093 23.2432 42.2073 22.8979 41.778C22.5619 41.3487 22.0905 41.134 21.4839 41.134C20.8679 41.134 20.3919 41.344 20.0559 41.764C19.7292 42.184 19.5659 42.7813 19.5659 43.556C19.5659 44.3307 19.7292 44.928 20.0559 45.348C20.3919 45.768 20.8679 45.978 21.4839 45.978ZM28.6354 47.098C27.6834 47.098 26.8714 46.8973 26.1994 46.496C25.9567 46.3653 25.8354 46.1833 25.8354 45.95C25.8354 45.81 25.8867 45.6933 25.9894 45.6C26.092 45.4973 26.2227 45.446 26.3814 45.446C26.4934 45.446 26.6054 45.474 26.7174 45.53C27.0067 45.6887 27.2914 45.8053 27.5714 45.88C27.8607 45.9547 28.178 45.992 28.5234 45.992C28.9807 45.992 29.3774 45.9033 29.7134 45.726C30.0494 45.5487 30.2174 45.278 30.2174 44.914C30.2174 44.3167 29.7927 44.018 28.9434 44.018H27.9494C27.7907 44.018 27.66 43.9713 27.5574 43.878C27.464 43.7753 27.4174 43.6447 27.4174 43.486C27.4174 43.3367 27.4687 43.2153 27.5714 43.122C27.674 43.0193 27.8 42.968 27.9494 42.968H28.8594C29.2514 42.968 29.55 42.884 29.7554 42.716C29.97 42.5387 30.0774 42.31 30.0774 42.03C30.0774 41.7407 29.956 41.5213 29.7134 41.372C29.4707 41.2133 29.1254 41.134 28.6774 41.134C28.3134 41.134 27.9914 41.1713 27.7114 41.246C27.4407 41.3207 27.1654 41.4327 26.8854 41.582C26.7734 41.6287 26.6707 41.652 26.5774 41.652C26.428 41.652 26.2974 41.6007 26.1854 41.498C26.0827 41.3953 26.0314 41.2787 26.0314 41.148C26.0314 40.9147 26.1574 40.7373 26.4094 40.616C27.1467 40.2053 27.9867 40 28.9294 40C29.7974 40 30.4507 40.168 30.8894 40.504C31.3374 40.84 31.5614 41.288 31.5614 41.848C31.5614 42.1933 31.454 42.5107 31.2394 42.8C31.0247 43.0893 30.726 43.2993 30.3434 43.43C31.2394 43.626 31.6874 44.1533 31.6874 45.012C31.6874 45.432 31.552 45.8007 31.2814 46.118C31.0107 46.4353 30.642 46.678 30.1754 46.846C29.7087 47.014 29.1954 47.098 28.6354 47.098ZM37.9213 40.532C38.052 40.3453 38.178 40.2147 38.2993 40.14C38.4206 40.0653 38.584 40.028 38.7893 40.028C39.0133 40.028 39.1906 40.0933 39.3213 40.224C39.452 40.3453 39.5173 40.5133 39.5173 40.728V46.384C39.5173 46.5893 39.4566 46.7573 39.3353 46.888C39.214 47.0093 39.0506 47.07 38.8453 47.07C38.6493 47.07 38.486 47.0093 38.3553 46.888C38.234 46.7573 38.1733 46.5893 38.1733 46.384V41.932L34.8133 46.594C34.6826 46.7807 34.552 46.9067 34.4213 46.972C34.3 47.0373 34.146 47.07 33.9593 47.07C33.7446 47.07 33.5673 47.0093 33.4273 46.888C33.2966 46.7573 33.2313 46.5893 33.2313 46.384V40.714C33.2313 40.518 33.292 40.3547 33.4133 40.224C33.544 40.0933 33.712 40.028 33.9173 40.028C34.1133 40.028 34.272 40.0933 34.3933 40.224C34.524 40.3547 34.5893 40.518 34.5893 40.714V45.124L37.9213 40.532ZM42.1484 47.07C41.9338 47.07 41.7611 47.0093 41.6304 46.888C41.4998 46.7667 41.4344 46.6033 41.4344 46.398V40.7C41.4344 40.4947 41.4998 40.3313 41.6304 40.21C41.7611 40.0887 41.9338 40.028 42.1484 40.028C42.3631 40.028 42.5311 40.0887 42.6524 40.21C42.7831 40.3313 42.8484 40.4947 42.8484 40.7V42.94H46.2084V40.7C46.2084 40.4947 46.2738 40.3313 46.4044 40.21C46.5351 40.0887 46.7078 40.028 46.9224 40.028C47.1371 40.028 47.3051 40.0887 47.4264 40.21C47.5571 40.3313 47.6224 40.4947 47.6224 40.7L47.6364 46.356C47.6364 46.5707 47.5711 46.7433 47.4404 46.874C47.3098 47.0047 47.1371 47.07 46.9224 47.07C46.7078 47.07 46.5351 47.0047 46.4044 46.874C46.2738 46.7433 46.2084 46.5707 46.2084 46.356V44.06H42.8484V46.398C42.8484 46.6033 42.7831 46.7667 42.6524 46.888C42.5311 47.0093 42.3631 47.07 42.1484 47.07ZM52.4398 40C53.3452 40 54.0172 40.2287 54.4558 40.686C54.9038 41.1433 55.1278 41.8387 55.1278 42.772V46.398C55.1278 46.6127 55.0672 46.7807 54.9458 46.902C54.8245 47.014 54.6565 47.07 54.4418 47.07C54.2365 47.07 54.0732 47.0093 53.9518 46.888C53.8305 46.7667 53.7698 46.6033 53.7698 46.398V45.88C53.5925 46.272 53.3265 46.5753 52.9718 46.79C52.6265 46.9953 52.2205 47.098 51.7538 47.098C51.3058 47.098 50.8952 47.0093 50.5218 46.832C50.1578 46.6453 49.8685 46.3933 49.6538 46.076C49.4392 45.7587 49.3318 45.3993 49.3318 44.998C49.3225 44.494 49.4485 44.102 49.7098 43.822C49.9712 43.5327 50.3958 43.3273 50.9838 43.206C51.5718 43.0753 52.3885 43.01 53.4338 43.01H53.7558V42.604C53.7558 42.0813 53.6485 41.7033 53.4338 41.47C53.2192 41.2367 52.8738 41.12 52.3978 41.12C52.0712 41.12 51.7632 41.162 51.4738 41.246C51.1845 41.33 50.8672 41.4513 50.5218 41.61C50.2698 41.75 50.0925 41.82 49.9898 41.82C49.8498 41.82 49.7332 41.7687 49.6398 41.666C49.5558 41.5633 49.5138 41.4327 49.5138 41.274C49.5138 41.134 49.5512 41.0127 49.6258 40.91C49.7098 40.798 49.8405 40.6907 50.0178 40.588C50.3445 40.4107 50.7272 40.2707 51.1658 40.168C51.6045 40.056 52.0292 40 52.4398 40ZM52.0058 46.048C52.5192 46.048 52.9392 45.8753 53.2658 45.53C53.5925 45.1753 53.7558 44.7227 53.7558 44.172V43.808H53.5038C52.7758 43.808 52.2158 43.8407 51.8238 43.906C51.4318 43.9713 51.1518 44.0833 50.9838 44.242C50.8158 44.3913 50.7318 44.6107 50.7318 44.9C50.7318 45.236 50.8532 45.5113 51.0958 45.726C51.3385 45.9407 51.6418 46.048 52.0058 46.048Z" fill="black"/>
<circle cx="29" cy="16" r="15.5" fill="white" stroke="#424242"/>
<path d="M31.3167 19.544C31.8767 19.544 32.1567 19.782 32.1567 20.258C32.1567 20.7527 31.8767 21 31.3167 21H26.5847C26.0154 21 25.7307 20.7527 25.7307 20.258C25.7307 19.782 26.0154 19.544 26.5847 19.544H28.0407V13.16L26.6967 13.986C26.5661 14.0607 26.4494 14.098 26.3467 14.098C26.1507 14.098 25.9827 14.014 25.8427 13.846C25.7121 13.678 25.6467 13.4913 25.6467 13.286C25.6467 13.0153 25.7681 12.8053 26.0107 12.656L28.1807 11.312C28.4607 11.144 28.7267 11.06 28.9787 11.06C29.2401 11.06 29.4501 11.1393 29.6087 11.298C29.7674 11.4567 29.8467 11.676 29.8467 11.956V19.544H31.3167Z" fill="black"/>
</svg>
