<svg width="132" height="52" viewBox="0 0 132 52" fill="none" xmlns="http://www.w3.org/2000/svg">
<path d="M5.39 47.112C4.45667 47.112 3.64467 46.9067 2.954 46.496C2.27267 46.0853 1.74533 45.502 1.372 44.746C0.998667 43.99 0.812 43.0987 0.812 42.072C0.812 41.036 0.994 40.14 1.358 39.384C1.73133 38.6187 2.26333 38.0353 2.954 37.634C3.64467 37.2233 4.45667 37.018 5.39 37.018C6.33267 37.018 7.14933 37.2233 7.84 37.634C8.53067 38.0353 9.058 38.6187 9.422 39.384C9.79533 40.14 9.982 41.0313 9.982 42.058C9.982 43.0847 9.79533 43.9807 9.422 44.746C9.058 45.502 8.53067 46.0853 7.84 46.496C7.14933 46.9067 6.33267 47.112 5.39 47.112ZM5.39 45.936C6.37933 45.936 7.14933 45.6 7.7 44.928C8.25067 44.256 8.526 43.2993 8.526 42.058C8.526 40.8167 8.25067 39.8647 7.7 39.202C7.15867 38.53 6.38867 38.194 5.39 38.194C4.41 38.194 3.64467 38.53 3.094 39.202C2.55267 39.8647 2.282 40.8167 2.282 42.058C2.282 43.2993 2.55267 44.256 3.094 44.928C3.64467 45.6 4.41 45.936 5.39 45.936ZM15.6028 49.688C15.3974 49.688 15.2294 49.6227 15.0988 49.492C14.9774 49.3707 14.9168 49.2073 14.9168 49.002V47.084C14.3288 47.0747 13.7641 46.944 13.2228 46.692C12.6908 46.44 12.2521 46.0527 11.9068 45.53C11.5614 44.998 11.3888 44.3447 11.3888 43.57C11.3888 42.7953 11.5614 42.1467 11.9068 41.624C12.2521 41.092 12.6908 40.7 13.2228 40.448C13.7641 40.196 14.3288 40.0653 14.9168 40.056V37.648C14.9168 37.4427 14.9774 37.2793 15.0988 37.158C15.2294 37.0273 15.3974 36.962 15.6028 36.962C15.8081 36.962 15.9714 37.0273 16.0928 37.158C16.2234 37.2793 16.2888 37.4427 16.2888 37.648V40.056C16.8674 40.0653 17.4228 40.196 17.9548 40.448C18.4961 40.7 18.9394 41.092 19.2848 41.624C19.6301 42.1467 19.8028 42.7953 19.8028 43.57C19.8028 44.3447 19.6301 44.998 19.2848 45.53C18.9394 46.0527 18.4961 46.44 17.9548 46.692C17.4228 46.944 16.8674 47.0747 16.2888 47.084V49.002C16.2888 49.2073 16.2234 49.3707 16.0928 49.492C15.9714 49.6227 15.8081 49.688 15.6028 49.688ZM14.9168 41.12C14.1421 41.1387 13.5868 41.3907 13.2508 41.876C12.9241 42.352 12.7608 42.9167 12.7608 43.57C12.7608 44.2233 12.9241 44.7927 13.2508 45.278C13.5868 45.754 14.1421 46.0013 14.9168 46.02V41.12ZM16.2748 46.02C17.0494 46.0013 17.6048 45.754 17.9408 45.278C18.2768 44.7927 18.4448 44.2233 18.4448 43.57C18.4448 42.9167 18.2768 42.352 17.9408 41.876C17.6048 41.3907 17.0494 41.1387 16.2748 41.12V46.02ZM24.3328 47.098C23.6608 47.098 23.0681 46.9533 22.5548 46.664C22.0508 46.3747 21.6588 45.964 21.3788 45.432C21.1081 44.8907 20.9728 44.2653 20.9728 43.556C20.9728 42.8373 21.1081 42.212 21.3788 41.68C21.6588 41.1387 22.0508 40.7233 22.5548 40.434C23.0681 40.1447 23.6608 40 24.3328 40C25.0048 40 25.5928 40.1447 26.0968 40.434C26.6101 40.7233 27.0021 41.1387 27.2728 41.68C27.5528 42.212 27.6928 42.8373 27.6928 43.556C27.6928 44.2653 27.5528 44.8907 27.2728 45.432C27.0021 45.964 26.6101 46.3747 26.0968 46.664C25.5928 46.9533 25.0048 47.098 24.3328 47.098ZM24.3328 45.978C24.9581 45.978 25.4341 45.7727 25.7608 45.362C26.0968 44.9513 26.2648 44.3493 26.2648 43.556C26.2648 42.772 26.0968 42.1747 25.7608 41.764C25.4248 41.344 24.9488 41.134 24.3328 41.134C23.7168 41.134 23.2408 41.344 22.9048 41.764C22.5688 42.1747 22.4008 42.772 22.4008 43.556C22.4008 44.3493 22.5641 44.9513 22.8908 45.362C23.2268 45.7727 23.7074 45.978 24.3328 45.978ZM32.9351 40C33.5231 40 34.0458 40.1493 34.5031 40.448C34.9698 40.7467 35.3291 41.1667 35.5811 41.708C35.8424 42.2493 35.9731 42.8747 35.9731 43.584C35.9731 44.284 35.8471 44.9 35.5951 45.432C35.3431 45.964 34.9838 46.3747 34.5171 46.664C34.0598 46.9533 33.5324 47.098 32.9351 47.098C32.4218 47.098 31.9691 46.9907 31.5771 46.776C31.1851 46.552 30.8864 46.2347 30.6811 45.824V48.946C30.6811 49.142 30.6158 49.296 30.4851 49.408C30.3638 49.5293 30.2004 49.59 29.9951 49.59C29.7804 49.59 29.6031 49.5293 29.4631 49.408C29.3324 49.2867 29.2671 49.1233 29.2671 48.918V40.714C29.2671 40.5087 29.3324 40.3453 29.4631 40.224C29.5938 40.0933 29.7664 40.028 29.9811 40.028C30.1864 40.028 30.3544 40.0933 30.4851 40.224C30.6158 40.3453 30.6811 40.5087 30.6811 40.714V41.288C30.8864 40.8773 31.1851 40.56 31.5771 40.336C31.9691 40.112 32.4218 40 32.9351 40ZM32.5991 45.978C33.2151 45.978 33.6911 45.7727 34.0271 45.362C34.3631 44.942 34.5311 44.3493 34.5311 43.584C34.5311 42.8093 34.3584 42.2073 34.0131 41.778C33.6771 41.3487 33.2058 41.134 32.5991 41.134C31.9831 41.134 31.5071 41.344 31.1711 41.764C30.8444 42.184 30.6811 42.7813 30.6811 43.556C30.6811 44.3307 30.8444 44.928 31.1711 45.348C31.5071 45.768 31.9831 45.978 32.5991 45.978ZM44.0486 40.028C44.2726 40.028 44.4499 40.0887 44.5806 40.21C44.7113 40.3313 44.7766 40.4993 44.7766 40.714V46.426C44.7766 46.6127 44.7159 46.7667 44.5946 46.888C44.4733 47.0093 44.3146 47.07 44.1186 47.07C43.9319 47.07 43.7733 47.0093 43.6426 46.888C43.5213 46.7667 43.4606 46.608 43.4606 46.412L43.4746 42.366L41.7806 45.488C41.7153 45.6093 41.6266 45.7073 41.5146 45.782C41.4026 45.8473 41.2813 45.88 41.1506 45.88C41.0106 45.88 40.8846 45.8473 40.7726 45.782C40.6606 45.7073 40.5719 45.6093 40.5066 45.488L38.8126 42.366L38.8266 46.412C38.8266 46.608 38.7613 46.7667 38.6306 46.888C38.5093 47.0093 38.3553 47.07 38.1686 47.07C37.9726 47.07 37.8139 47.0093 37.6926 46.888C37.5713 46.7667 37.5106 46.6127 37.5106 46.426V40.756C37.5106 40.5413 37.5713 40.3687 37.6926 40.238C37.8233 40.098 37.9913 40.028 38.1966 40.028C38.3833 40.028 38.5419 40.0607 38.6726 40.126C38.8126 40.1913 38.9293 40.322 39.0226 40.518L41.1506 44.522L43.2226 40.588C43.3346 40.3827 43.4513 40.238 43.5726 40.154C43.6939 40.07 43.8526 40.028 44.0486 40.028ZM48.8264 42.016C48.8264 43.4627 48.6631 44.578 48.3364 45.362C48.0191 46.1367 47.5198 46.6967 46.8384 47.042C46.7544 47.0793 46.6564 47.098 46.5444 47.098C46.3764 47.098 46.2364 47.0467 46.1244 46.944C46.0124 46.832 45.9564 46.7013 45.9564 46.552C45.9564 46.44 45.9891 46.3327 46.0544 46.23C46.1198 46.118 46.2084 46.0293 46.3204 45.964C46.6284 45.7867 46.8664 45.5487 47.0344 45.25C47.2118 44.942 47.3378 44.536 47.4124 44.032C47.4871 43.528 47.5244 42.8653 47.5244 42.044V40.896C47.5244 40.672 47.5851 40.4947 47.7064 40.364C47.8278 40.2333 47.9958 40.168 48.2104 40.168H51.9064C52.1304 40.168 52.3078 40.2287 52.4384 40.35C52.5691 40.4713 52.6344 40.6393 52.6344 40.854V46.398C52.6344 46.6033 52.5691 46.7667 52.4384 46.888C52.3171 47.0093 52.1491 47.07 51.9344 47.07C51.7198 47.07 51.5471 47.0093 51.4164 46.888C51.2858 46.7667 51.2204 46.6033 51.2204 46.398V41.26H48.8264V42.016ZM59.9081 45.278C60.0387 45.278 60.1461 45.3293 60.2301 45.432C60.3141 45.5347 60.3561 45.6653 60.3561 45.824C60.3561 46.0947 60.1881 46.3233 59.8521 46.51C59.5254 46.6967 59.1661 46.8413 58.7741 46.944C58.3914 47.0467 58.0227 47.098 57.6681 47.098C56.5854 47.098 55.7314 46.7853 55.1061 46.16C54.4807 45.5253 54.1681 44.662 54.1681 43.57C54.1681 42.87 54.3034 42.2493 54.5741 41.708C54.8541 41.1667 55.2414 40.7467 55.7361 40.448C56.2401 40.1493 56.8094 40 57.4441 40C58.3587 40 59.0821 40.294 59.6141 40.882C60.1461 41.47 60.4121 42.2633 60.4121 43.262C60.4121 43.6353 60.2441 43.822 59.9081 43.822H55.5821C55.6754 45.2687 56.3707 45.992 57.6681 45.992C58.0134 45.992 58.3121 45.9453 58.5641 45.852C58.8161 45.7587 59.0821 45.6373 59.3621 45.488C59.3901 45.4693 59.4647 45.432 59.5861 45.376C59.7167 45.3107 59.8241 45.278 59.9081 45.278ZM57.4721 41.036C56.9307 41.036 56.4967 41.2087 56.1701 41.554C55.8434 41.8993 55.6474 42.3847 55.5821 43.01H59.1941C59.1661 42.3753 59.0027 41.89 58.7041 41.554C58.4147 41.2087 58.0041 41.036 57.4721 41.036ZM62.6562 47.07C62.4416 47.07 62.2689 47.0093 62.1382 46.888C62.0076 46.7667 61.9422 46.6033 61.9422 46.398V40.7C61.9422 40.4947 62.0076 40.3313 62.1382 40.21C62.2689 40.0887 62.4416 40.028 62.6562 40.028C62.8709 40.028 63.0389 40.0887 63.1602 40.21C63.2909 40.3313 63.3562 40.4947 63.3562 40.7V42.94H66.7162V40.7C66.7162 40.4947 66.7816 40.3313 66.9122 40.21C67.0429 40.0887 67.2156 40.028 67.4302 40.028C67.6449 40.028 67.8129 40.0887 67.9342 40.21C68.0649 40.3313 68.1302 40.4947 68.1302 40.7L68.1442 46.356C68.1442 46.5707 68.0789 46.7433 67.9482 46.874C67.8176 47.0047 67.6449 47.07 67.4302 47.07C67.2156 47.07 67.0429 47.0047 66.9122 46.874C66.7816 46.7433 66.7162 46.5707 66.7162 46.356V44.06H63.3562V46.398C63.3562 46.6033 63.2909 46.7667 63.1602 46.888C63.0389 47.0093 62.8709 47.07 62.6562 47.07ZM74.7397 40.532C74.8703 40.3453 74.9963 40.2147 75.1177 40.14C75.239 40.0653 75.4023 40.028 75.6077 40.028C75.8317 40.028 76.009 40.0933 76.1397 40.224C76.2703 40.3453 76.3357 40.5133 76.3357 40.728V46.384C76.3357 46.5893 76.275 46.7573 76.1537 46.888C76.0323 47.0093 75.869 47.07 75.6637 47.07C75.4677 47.07 75.3043 47.0093 75.1737 46.888C75.0523 46.7573 74.9917 46.5893 74.9917 46.384V41.932L71.6317 46.594C71.501 46.7807 71.3703 46.9067 71.2397 46.972C71.1183 47.0373 70.9643 47.07 70.7777 47.07C70.563 47.07 70.3857 47.0093 70.2457 46.888C70.115 46.7573 70.0497 46.5893 70.0497 46.384V40.714C70.0497 40.518 70.1103 40.3547 70.2317 40.224C70.3623 40.0933 70.5303 40.028 70.7357 40.028C70.9317 40.028 71.0903 40.0933 71.2117 40.224C71.3423 40.3547 71.4077 40.518 71.4077 40.714V45.124L74.7397 40.532ZM83.6288 45.278C83.7594 45.278 83.8668 45.3293 83.9508 45.432C84.0348 45.5347 84.0768 45.6653 84.0768 45.824C84.0768 46.0947 83.9088 46.3233 83.5728 46.51C83.2461 46.6967 82.8868 46.8413 82.4948 46.944C82.1121 47.0467 81.7434 47.098 81.3888 47.098C80.3061 47.098 79.4521 46.7853 78.8268 46.16C78.2014 45.5253 77.8888 44.662 77.8888 43.57C77.8888 42.87 78.0241 42.2493 78.2948 41.708C78.5748 41.1667 78.9621 40.7467 79.4568 40.448C79.9608 40.1493 80.5301 40 81.1648 40C82.0794 40 82.8028 40.294 83.3348 40.882C83.8668 41.47 84.1328 42.2633 84.1328 43.262C84.1328 43.6353 83.9648 43.822 83.6288 43.822H79.3028C79.3961 45.2687 80.0914 45.992 81.3888 45.992C81.7341 45.992 82.0328 45.9453 82.2848 45.852C82.5368 45.7587 82.8028 45.6373 83.0828 45.488C83.1108 45.4693 83.1854 45.432 83.3068 45.376C83.4374 45.3107 83.5448 45.278 83.6288 45.278ZM81.1928 41.036C80.6514 41.036 80.2174 41.2087 79.8908 41.554C79.5641 41.8993 79.3681 42.3847 79.3028 43.01H82.9148C82.8868 42.3753 82.7234 41.89 82.4248 41.554C82.1354 41.2087 81.7248 41.036 81.1928 41.036ZM91.5943 47.098C90.6423 47.098 89.8303 46.8973 89.1583 46.496C88.9157 46.3653 88.7943 46.1833 88.7943 45.95C88.7943 45.81 88.8457 45.6933 88.9483 45.6C89.051 45.4973 89.1817 45.446 89.3403 45.446C89.4523 45.446 89.5643 45.474 89.6763 45.53C89.9657 45.6887 90.2503 45.8053 90.5303 45.88C90.8197 45.9547 91.137 45.992 91.4823 45.992C91.9397 45.992 92.3363 45.9033 92.6723 45.726C93.0083 45.5487 93.1763 45.278 93.1763 44.914C93.1763 44.3167 92.7517 44.018 91.9023 44.018H90.9083C90.7497 44.018 90.619 43.9713 90.5163 43.878C90.423 43.7753 90.3763 43.6447 90.3763 43.486C90.3763 43.3367 90.4277 43.2153 90.5303 43.122C90.633 43.0193 90.759 42.968 90.9083 42.968H91.8183C92.2103 42.968 92.509 42.884 92.7143 42.716C92.929 42.5387 93.0363 42.31 93.0363 42.03C93.0363 41.7407 92.915 41.5213 92.6723 41.372C92.4297 41.2133 92.0843 41.134 91.6363 41.134C91.2723 41.134 90.9503 41.1713 90.6703 41.246C90.3997 41.3207 90.1243 41.4327 89.8443 41.582C89.7323 41.6287 89.6297 41.652 89.5363 41.652C89.387 41.652 89.2563 41.6007 89.1443 41.498C89.0417 41.3953 88.9903 41.2787 88.9903 41.148C88.9903 40.9147 89.1163 40.7373 89.3683 40.616C90.1057 40.2053 90.9457 40 91.8883 40C92.7563 40 93.4097 40.168 93.8483 40.504C94.2963 40.84 94.5203 41.288 94.5203 41.848C94.5203 42.1933 94.413 42.5107 94.1983 42.8C93.9837 43.0893 93.685 43.2993 93.3023 43.43C94.1983 43.626 94.6463 44.1533 94.6463 45.012C94.6463 45.432 94.511 45.8007 94.2403 46.118C93.9697 46.4353 93.601 46.678 93.1343 46.846C92.6677 47.014 92.1543 47.098 91.5943 47.098ZM99.0883 40C99.9936 40 100.666 40.2287 101.104 40.686C101.552 41.1433 101.776 41.8387 101.776 42.772V46.398C101.776 46.6127 101.716 46.7807 101.594 46.902C101.473 47.014 101.305 47.07 101.09 47.07C100.885 47.07 100.722 47.0093 100.6 46.888C100.479 46.7667 100.418 46.6033 100.418 46.398V45.88C100.241 46.272 99.9749 46.5753 99.6203 46.79C99.2749 46.9953 98.8689 47.098 98.4023 47.098C97.9543 47.098 97.5436 47.0093 97.1703 46.832C96.8063 46.6453 96.5169 46.3933 96.3023 46.076C96.0876 45.7587 95.9803 45.3993 95.9803 44.998C95.9709 44.494 96.0969 44.102 96.3583 43.822C96.6196 43.5327 97.0443 43.3273 97.6323 43.206C98.2203 43.0753 99.0369 43.01 100.082 43.01H100.404V42.604C100.404 42.0813 100.297 41.7033 100.082 41.47C99.8676 41.2367 99.5223 41.12 99.0463 41.12C98.7196 41.12 98.4116 41.162 98.1223 41.246C97.8329 41.33 97.5156 41.4513 97.1703 41.61C96.9183 41.75 96.7409 41.82 96.6383 41.82C96.4983 41.82 96.3816 41.7687 96.2883 41.666C96.2043 41.5633 96.1623 41.4327 96.1623 41.274C96.1623 41.134 96.1996 41.0127 96.2743 40.91C96.3583 40.798 96.4889 40.6907 96.6663 40.588C96.9929 40.4107 97.3756 40.2707 97.8143 40.168C98.2529 40.056 98.6776 40 99.0883 40ZM98.6543 46.048C99.1676 46.048 99.5876 45.8753 99.9143 45.53C100.241 45.1753 100.404 44.7227 100.404 44.172V43.808H100.152C99.4243 43.808 98.8643 43.8407 98.4723 43.906C98.0803 43.9713 97.8003 44.0833 97.6323 44.242C97.4643 44.3913 97.3803 44.6107 97.3803 44.9C97.3803 45.236 97.5016 45.5113 97.7443 45.726C97.9869 45.9407 98.2903 46.048 98.6543 46.048ZM107.28 43.276C107.607 43.388 107.868 43.5467 108.064 43.752C108.27 43.9573 108.512 44.3027 108.792 44.788L109.548 46.062C109.614 46.1833 109.646 46.3 109.646 46.412C109.646 46.5987 109.576 46.7573 109.436 46.888C109.296 47.0093 109.133 47.07 108.946 47.07C108.704 47.07 108.508 46.9487 108.358 46.706L107.378 45.026C107.154 44.6527 106.94 44.4007 106.734 44.27C106.538 44.13 106.249 44.06 105.866 44.06H105.194V46.398C105.194 46.6033 105.129 46.7667 104.998 46.888C104.868 47.0093 104.695 47.07 104.48 47.07C104.266 47.07 104.093 47.0093 103.962 46.888C103.841 46.7667 103.78 46.6033 103.78 46.398V40.714C103.78 40.4993 103.841 40.3313 103.962 40.21C104.093 40.0887 104.266 40.028 104.48 40.028C104.695 40.028 104.868 40.0933 104.998 40.224C105.129 40.3453 105.194 40.5087 105.194 40.714V42.982H105.992L108.176 40.322C108.335 40.1353 108.512 40.042 108.708 40.042C108.867 40.042 109.002 40.098 109.114 40.21C109.236 40.322 109.296 40.4573 109.296 40.616C109.296 40.784 109.236 40.9427 109.114 41.092L107.28 43.276ZM113.95 40C114.855 40 115.527 40.2287 115.966 40.686C116.414 41.1433 116.638 41.8387 116.638 42.772V46.398C116.638 46.6127 116.577 46.7807 116.456 46.902C116.334 47.014 116.166 47.07 115.952 47.07C115.746 47.07 115.583 47.0093 115.462 46.888C115.34 46.7667 115.28 46.6033 115.28 46.398V45.88C115.102 46.272 114.836 46.5753 114.482 46.79C114.136 46.9953 113.73 47.098 113.264 47.098C112.816 47.098 112.405 47.0093 112.032 46.832C111.668 46.6453 111.378 46.3933 111.164 46.076C110.949 45.7587 110.842 45.3993 110.842 44.998C110.832 44.494 110.958 44.102 111.22 43.822C111.481 43.5327 111.906 43.3273 112.494 43.206C113.082 43.0753 113.898 43.01 114.944 43.01H115.266V42.604C115.266 42.0813 115.158 41.7033 114.944 41.47C114.729 41.2367 114.384 41.12 113.908 41.12C113.581 41.12 113.273 41.162 112.984 41.246C112.694 41.33 112.377 41.4513 112.032 41.61C111.78 41.75 111.602 41.82 111.5 41.82C111.36 41.82 111.243 41.7687 111.15 41.666C111.066 41.5633 111.024 41.4327 111.024 41.274C111.024 41.134 111.061 41.0127 111.136 40.91C111.22 40.798 111.35 40.6907 111.528 40.588C111.854 40.4107 112.237 40.2707 112.676 40.168C113.114 40.056 113.539 40 113.95 40ZM113.516 46.048C114.029 46.048 114.449 45.8753 114.776 45.53C115.102 45.1753 115.266 44.7227 115.266 44.172V43.808H115.014C114.286 43.808 113.726 43.8407 113.334 43.906C112.942 43.9713 112.662 44.0833 112.494 44.242C112.326 44.3913 112.242 44.6107 112.242 44.9C112.242 45.236 112.363 45.5113 112.606 45.726C112.848 45.9407 113.152 46.048 113.516 46.048ZM120.784 47.098C119.832 47.098 119.02 46.8973 118.348 46.496C118.105 46.3653 117.984 46.1833 117.984 45.95C117.984 45.81 118.035 45.6933 118.138 45.6C118.24 45.4973 118.371 45.446 118.53 45.446C118.642 45.446 118.754 45.474 118.866 45.53C119.155 45.6887 119.44 45.8053 119.72 45.88C120.009 45.9547 120.326 45.992 120.672 45.992C121.129 45.992 121.526 45.9033 121.862 45.726C122.198 45.5487 122.366 45.278 122.366 44.914C122.366 44.3167 121.941 44.018 121.092 44.018H120.098C119.939 44.018 119.808 43.9713 119.706 43.878C119.612 43.7753 119.566 43.6447 119.566 43.486C119.566 43.3367 119.617 43.2153 119.72 43.122C119.822 43.0193 119.948 42.968 120.098 42.968H121.008C121.4 42.968 121.698 42.884 121.904 42.716C122.118 42.5387 122.226 42.31 122.226 42.03C122.226 41.7407 122.104 41.5213 121.862 41.372C121.619 41.2133 121.274 41.134 120.826 41.134C120.462 41.134 120.14 41.1713 119.86 41.246C119.589 41.3207 119.314 41.4327 119.034 41.582C118.922 41.6287 118.819 41.652 118.726 41.652C118.576 41.652 118.446 41.6007 118.334 41.498C118.231 41.3953 118.18 41.2787 118.18 41.148C118.18 40.9147 118.306 40.7373 118.558 40.616C119.295 40.2053 120.135 40 121.078 40C121.946 40 122.599 40.168 123.038 40.504C123.486 40.84 123.71 41.288 123.71 41.848C123.71 42.1933 123.602 42.5107 123.388 42.8C123.173 43.0893 122.874 43.2993 122.492 43.43C123.388 43.626 123.836 44.1533 123.836 45.012C123.836 45.432 123.7 45.8007 123.43 46.118C123.159 46.4353 122.79 46.678 122.324 46.846C121.857 47.014 121.344 47.098 120.784 47.098ZM128.278 40C129.183 40 129.855 40.2287 130.294 40.686C130.742 41.1433 130.966 41.8387 130.966 42.772V46.398C130.966 46.6127 130.905 46.7807 130.784 46.902C130.662 47.014 130.494 47.07 130.28 47.07C130.074 47.07 129.911 47.0093 129.79 46.888C129.668 46.7667 129.608 46.6033 129.608 46.398V45.88C129.43 46.272 129.164 46.5753 128.81 46.79C128.464 46.9953 128.058 47.098 127.592 47.098C127.144 47.098 126.733 47.0093 126.36 46.832C125.996 46.6453 125.706 46.3933 125.492 46.076C125.277 45.7587 125.17 45.3993 125.17 44.998C125.16 44.494 125.286 44.102 125.548 43.822C125.809 43.5327 126.234 43.3273 126.822 43.206C127.41 43.0753 128.226 43.01 129.272 43.01H129.594V42.604C129.594 42.0813 129.486 41.7033 129.272 41.47C129.057 41.2367 128.712 41.12 128.236 41.12C127.909 41.12 127.601 41.162 127.312 41.246C127.022 41.33 126.705 41.4513 126.36 41.61C126.108 41.75 125.93 41.82 125.828 41.82C125.688 41.82 125.571 41.7687 125.478 41.666C125.394 41.5633 125.352 41.4327 125.352 41.274C125.352 41.134 125.389 41.0127 125.464 40.91C125.548 40.798 125.678 40.6907 125.856 40.588C126.182 40.4107 126.565 40.2707 127.004 40.168C127.442 40.056 127.867 40 128.278 40ZM127.844 46.048C128.357 46.048 128.777 45.8753 129.104 45.53C129.43 45.1753 129.594 44.7227 129.594 44.172V43.808H129.342C128.614 43.808 128.054 43.8407 127.662 43.906C127.27 43.9713 126.99 44.0833 126.822 44.242C126.654 44.3913 126.57 44.6107 126.57 44.9C126.57 45.236 126.691 45.5113 126.934 45.726C127.176 45.9407 127.48 46.048 127.844 46.048Z" fill="#AEADAE"/>
<circle cx="66" cy="16" r="15.5" fill="white" stroke="#D7D7D7"/>
<path d="M69.2679 19.544C69.8279 19.544 70.1079 19.782 70.1079 20.258C70.1079 20.7527 69.8279 21 69.2679 21H63.9479C63.7052 21 63.5139 20.93 63.3739 20.79C63.2339 20.6407 63.1639 20.4587 63.1639 20.244C63.1639 19.964 63.2712 19.712 63.4859 19.488L66.6779 16.058C67.0699 15.6287 67.3546 15.2367 67.5319 14.882C67.7186 14.518 67.8119 14.1587 67.8119 13.804C67.8119 13.3653 67.6859 13.0293 67.4339 12.796C67.1819 12.5627 66.8226 12.446 66.3559 12.446C65.9732 12.446 65.5999 12.5207 65.2359 12.67C64.8812 12.81 64.5219 13.006 64.1579 13.258C64.0646 13.3233 63.9712 13.3793 63.8779 13.426C63.7846 13.4633 63.6912 13.482 63.5979 13.482C63.4392 13.482 63.2992 13.4073 63.1779 13.258C63.0659 13.1087 63.0099 12.9313 63.0099 12.726C63.0099 12.586 63.0332 12.4647 63.0799 12.362C63.1359 12.2593 63.2199 12.1613 63.3319 12.068C63.7426 11.7413 64.2232 11.4847 64.7739 11.298C65.3246 11.102 65.8752 11.004 66.4259 11.004C67.3872 11.004 68.1526 11.2467 68.7219 11.732C69.3006 12.2173 69.5899 12.8707 69.5899 13.692C69.5899 14.2613 69.4686 14.798 69.2259 15.302C68.9832 15.7967 68.5726 16.352 67.9939 16.968L65.5719 19.544H69.2679Z" fill="#AEADAE"/>
</svg>
